HIERARCHY
ROOT Hips
{
	OFFSET -0.001795 -0.223333 0.028219
	CHANNELS 6 Xposition Yposition Zposition Zrotation Yrotation Xrotation 
	JOINT LeftUpLeg
	{
		OFFSET 0.069520 -0.091406 -0.006815
		CHANNELS 3 Zrotation Yrotation Xrotation
		JOINT LeftLeg
		{
			OFFSET 0.034277 -0.375199 -0.004496
			CHANNELS 3 Zrotation Yrotation Xrotation
			JOINT LeftFoot
			{
				OFFSET -0.013596 -0.397961 -0.043693
				CHANNELS 3 Zrotation Yrotation Xrotation
				JOINT LeftToe
				{
					OFFSET 0.026358 -0.055791 0.119288
					CHANNELS 3 Zrotation Yrotation Xrotation
					End Site
					{
						OFFSET 0.000000 0.000000 0.000000
					}
				}
			}
		}
	}
	JOINT RightUpLeg
	{
		OFFSET -0.067670 -0.090522 -0.004320
		CHANNELS 3 Zrotation Yrotation Xrotation
		JOINT RightLeg
		{
			OFFSET -0.038290 -0.382569 -0.008850
			CHANNELS 3 Zrotation Yrotation Xrotation
			JOINT RightFoot
			{
				OFFSET 0.015774 -0.398415 -0.042312
				CHANNELS 3 Zrotation Yrotation Xrotation
				JOINT RightToe
				{
					OFFSET -0.025372 -0.048144 0.123348
					CHANNELS 3 Zrotation Yrotation Xrotation
					End Site
					{
						OFFSET 0.000000 0.000000 0.000000
					}
				}
			}
		}
	}
	JOINT Spine
	{
		OFFSET -0.002533 0.108963 -0.026696
		CHANNELS 3 Zrotation Yrotation Xrotation
		JOINT Spine1
		{
			OFFSET 0.005487 0.135180 0.001092
			CHANNELS 3 Zrotation Yrotation Xrotation
			JOINT Spine2
			{
				OFFSET 0.001457 0.052922 0.025425
				CHANNELS 3 Zrotation Yrotation Xrotation
				JOINT Neck
				{
					OFFSET -0.002778 0.213870 -0.042857
					CHANNELS 3 Zrotation Yrotation Xrotation
					JOINT Head
					{
						OFFSET 0.005152 0.064970 0.051349
						CHANNELS 3 Zrotation Yrotation Xrotation
						End Site
						{
							OFFSET 0.000000 0.000000 0.000000
						}
					}
				}
				JOINT LeftShoulder
				{
					OFFSET 0.078845 0.121749 -0.034090
					CHANNELS 3 Zrotation Yrotation Xrotation
					JOINT LeftArm
					{
						OFFSET 0.090977 0.030469 -0.008868
						CHANNELS 3 Zrotation Yrotation Xrotation
						JOINT LeftForeArm
						{
							OFFSET 0.259612 -0.012772 -0.027456
							CHANNELS 3 Zrotation Yrotation Xrotation
							JOINT LeftHand
							{
								OFFSET 0.249234 0.008986 -0.001171
								CHANNELS 3 Zrotation Yrotation Xrotation
								End Site
								{
									OFFSET 0.000000 0.000000 0.000000
								}
							}
						}
					}
				}
				JOINT RightShoulder
				{
					OFFSET -0.081759 0.118833 -0.038615
					CHANNELS 3 Zrotation Yrotation Xrotation
					JOINT RightArm
					{
						OFFSET -0.096012 0.032551 -0.009143
						CHANNELS 3 Zrotation Yrotation Xrotation
						JOINT RightForeArm
						{
							OFFSET -0.253742 -0.013329 -0.021401
							CHANNELS 3 Zrotation Yrotation Xrotation
							JOINT RightHand
							{
								OFFSET -0.255298 0.007772 -0.005559
								CHANNELS 3 Zrotation Yrotation Xrotation
								End Site
								{
									OFFSET 0.000000 0.000000 0.000000
								}
							}
						}
					}
				}
			}
		}
	}
}
MOTION
Frames: 11
Frame Time: 0.050000
-0.053390 0.948260 1.750268 -0.637422 7.184334 -10.280286 -8.418175 -1.792482 -10.174669 2.626525 -1.628687 17.891914 -3.194460 2.783253 17.788695 0.000000 0.000000 0.000000 7.769777 -2.090312 11.573019 0.191285 0.374181 28.154832 1.942861 -0.006733 11.185927 0.000000 0.000000 0.000000 -5.869449 -0.157780 14.567647 -2.099965 0.833341 7.075676 3.772799 8.501995 5.226815 -1.627813 3.178913 -14.962682 0.000000 0.000000 0.000000 -19.592734 1.092186 -5.171806 -43.865763 17.803519 -10.883199 -105.195553 -56.006978 68.841650 0.000000 0.000000 0.000000 16.075606 7.535844 4.722299 53.675502 8.490607 -1.955782 93.998384 75.998779 89.169768 0.000000 0.000000 0.000000 
-0.063265 0.936223 1.820712 -1.014313 9.058442 -12.625257 -7.866547 -0.920735 -5.205904 2.789357 -2.209109 22.185326 -0.943683 2.843501 8.963950 0.000000 0.000000 0.000000 4.116375 -0.918070 6.518529 5.046963 -3.224413 45.966279 6.758245 5.099538 19.929115 0.000000 0.000000 0.000000 -7.228555 -0.147633 16.776274 -1.499904 0.545662 5.556951 4.169830 5.799735 6.259726 -2.294382 3.541250 -16.320561 0.000000 0.000000 0.000000 -21.054422 0.341480 -4.634504 -42.288176 12.791012 -8.807034 -107.780937 -59.796798 76.683564 0.000000 0.000000 0.000000 16.673409 5.620376 3.360170 54.644613 4.478370 -3.910647 97.427757 69.274868 84.758806 0.000000 0.000000 0.000000 
-0.074305 0.926951 1.883780 -1.442448 10.030293 -13.982693 -6.708487 -0.091269 0.020583 3.752188 -2.667328 22.966159 0.310532 2.027271 2.504291 0.000000 0.000000 0.000000 0.654064 0.081866 -0.757371 4.292306 -4.034634 55.297712 9.137367 5.402586 26.991345 0.000000 0.000000 0.000000 -6.960819 -0.250759 17.392707 -0.341292 -0.306899 8.063516 1.973702 1.948569 5.348811 -2.935359 3.618384 -17.102782 0.000000 0.000000 0.000000 -24.509652 -3.593416 -2.264548 -41.421439 4.713482 -5.976556 -110.423603 -67.539221 89.659616 0.000000 0.000000 0.000000 18.551296 7.414195 3.659178 54.779759 1.094529 -5.358829 97.229147 68.678196 81.912751 0.000000 0.000000 0.000000 
-0.086656 0.929703 1.943449 -2.340711 10.959116 -14.997694 -5.128101 0.534652 5.135780 5.584914 -3.289482 22.783459 0.389523 1.085845 0.475235 0.000000 0.000000 0.000000 -1.422258 0.460215 -6.052799 2.256542 -2.702332 52.632788 0.982620 -1.880804 10.913037 0.000000 0.000000 0.000000 -5.902534 -0.459900 18.958987 0.450649 -0.675011 6.561716 1.766357 -3.956844 5.820515 -6.533205 5.252342 -17.474077 0.000000 0.000000 0.000000 -24.461541 -4.678347 0.118371 -44.082288 -3.938429 -4.020063 -119.706011 -73.048356 108.408761 0.000000 0.000000 0.000000 17.138330 8.490872 2.905511 54.532703 -3.628655 -7.310164 95.524582 65.562497 74.066898 0.000000 0.000000 0.000000 
-0.101147 0.938902 2.003125 -3.258212 12.981321 -14.551672 -2.610763 0.772486 9.340425 7.218672 -3.537677 20.574097 -1.432755 -1.903013 1.505826 0.000000 0.000000 0.000000 -3.496177 0.370998 -8.147938 -1.457680 0.085696 36.633744 0.028159 -1.175520 3.586500 0.000000 0.000000 0.000000 -4.887419 -0.626554 18.513973 3.005151 -2.152265 5.849233 -0.463101 -7.819458 6.006947 -7.624292 5.685871 -16.527894 0.000000 0.000000 0.000000 -24.711736 -5.211229 1.199415 -45.064329 -11.475376 -1.623594 -136.647950 -74.147735 130.728265 0.000000 0.000000 0.000000 17.716356 6.470244 1.297992 52.966971 -9.308907 -9.429208 100.650388 62.097051 73.946760 0.000000 0.000000 0.000000 
-0.118771 0.944599 2.061728 -3.830833 15.112278 -13.193600 -0.355731 0.593063 10.228912 8.381898 -4.114341 21.278570 -2.948155 -2.643545 4.655467 0.000000 0.000000 0.000000 -3.655388 0.325639 -7.980635 -5.474376 1.733301 25.152511 2.323377 2.291647 9.422296 0.000000 0.000000 0.000000 -5.051684 -0.571570 16.781798 4.323302 -3.615906 9.678353 -0.186436 -9.381487 1.242604 -8.990298 6.431906 -13.585657 0.000000 0.000000 0.000000 -23.067554 -5.893230 1.770806 -47.058426 -14.685496 -0.023090 -144.011380 -70.055175 136.976659 0.000000 0.000000 0.000000 17.005436 6.333398 0.867099 52.324362 -13.329817 -10.520393 104.962236 62.321275 77.376144 0.000000 0.000000 0.000000 
-0.139172 0.941963 2.116718 -5.068630 18.407418 -13.000761 3.103494 0.092274 6.237139 7.811105 -6.644816 32.133095 -3.606603 -3.199557 5.505182 0.000000 0.000000 0.000000 -1.481349 0.349460 -5.197698 -6.008178 1.612412 24.563017 1.832348 1.182019 11.423892 0.000000 0.000000 0.000000 -3.961333 -0.742089 16.485513 4.143206 -3.638813 9.543742 0.490277 -9.829974 1.327292 -8.933447 6.540780 -11.912300 0.000000 0.000000 0.000000 -22.576829 -7.506366 2.438348 -46.957531 -16.664164 0.827886 -148.146539 -66.132858 139.298480 0.000000 0.000000 0.000000 15.342887 4.940096 0.528867 54.432907 -13.888413 -11.363769 107.114901 64.475624 82.694769 0.000000 0.000000 0.000000 
-0.158081 0.930100 2.164482 -7.039103 20.384990 -14.232081 7.437143 -0.307408 -0.507377 2.603430 -8.859565 47.879965 -1.518669 2.090254 8.276626 0.000000 0.000000 0.000000 0.843435 0.356451 -3.220061 -4.987595 0.884606 27.839915 1.519101 1.329388 9.182281 0.000000 0.000000 0.000000 -2.876270 -1.128312 18.793172 4.188378 -3.562856 8.587931 0.540183 -7.457059 2.176443 -7.579481 5.893797 -13.336098 0.000000 0.000000 0.000000 -24.400855 -8.387670 1.811680 -45.527331 -15.820201 0.728824 -145.209185 -63.668118 130.965852 0.000000 0.000000 0.000000 14.343880 4.214320 0.930806 54.889560 -12.071510 -10.756464 110.339008 67.461176 91.577916 0.000000 0.000000 0.000000 
-0.170187 0.919834 2.205129 -7.613497 23.008574 -15.377278 8.810773 -0.543560 -8.931065 -4.090890 -8.783876 59.583173 3.066284 10.451955 10.771187 0.000000 0.000000 0.000000 2.220187 0.217985 -1.251365 -4.634168 0.183300 30.858456 0.954167 0.727241 7.258088 0.000000 0.000000 0.000000 -2.716279 -1.585347 21.679439 3.757646 -3.279712 8.165318 0.337682 -3.942543 2.473576 -5.569557 5.002761 -13.356012 0.000000 0.000000 0.000000 -25.218957 -10.669213 1.450960 -43.637402 -13.796660 0.518213 -139.460732 -65.001655 121.202280 0.000000 0.000000 0.000000 14.687726 4.707727 2.044167 55.277276 -7.393852 -8.805289 109.890827 73.188867 99.978016 0.000000 0.000000 0.000000 
-0.172568 0.916824 2.244065 -7.333132 24.439369 -14.969074 8.211541 -0.994065 -15.395073 -8.154682 -6.452215 59.889923 6.585348 14.312731 3.959961 0.000000 0.000000 0.000000 2.285191 -0.027677 0.617898 -4.093200 -0.329618 31.788362 1.312890 2.076065 5.009236 0.000000 0.000000 0.000000 -2.572620 -1.862114 23.218259 3.133797 -2.463195 5.796300 -0.205296 -1.406865 3.957442 -3.839153 4.199824 -12.454743 0.000000 0.000000 0.000000 -25.305359 -11.614160 0.735875 -44.128350 -8.558541 -1.029826 -132.902177 -64.766929 110.442226 0.000000 0.000000 0.000000 15.911939 5.128670 3.081157 53.061189 -3.018717 -6.857663 108.077017 77.573125 104.604615 0.000000 0.000000 0.000000 
-0.164958 0.922855 2.284096 -6.693513 25.669975 -13.159948 6.640399 -1.644010 -19.762347 -8.055237 -4.775965 51.172783 7.588721 14.986489 -0.038319 0.000000 0.000000 0.000000 2.240751 -0.514303 3.875035 -3.506320 -0.344405 28.589637 0.689655 0.987779 3.659820 0.000000 0.000000 0.000000 -2.194395 -1.978335 23.381444 2.399901 -1.775178 4.170565 -0.841925 1.176333 4.737813 -2.504496 3.537402 -11.390041 0.000000 0.000000 0.000000 -23.487839 -10.920450 -0.581566 -45.242787 -3.376633 -2.760639 -125.110898 -61.140237 94.633258 0.000000 0.000000 0.000000 16.064163 4.349517 3.441941 52.576447 -0.387156 -5.807529 111.703377 77.862366 110.796612 0.000000 0.000000 0.000000 
